<svg width="68" height="24" viewBox="0 0 68 24" fill="none" xmlns="http://www.w3.org/2000/svg">
  <path d="M12.43 18.3h-2.47v-8.23H6.88V7.9h8.63v2.17h-3.08v8.23zM21.92 18.3c-1.15 0-2.12-.34-2.88-1.01v.83h-2.39V7.9h2.39v4.06c.76-.67 1.73-1.01 2.88-1.01 2.21 0 4.03 1.49 4.03 3.68 0 2.19-1.82 3.67-4.03 3.67zm-.57-1.95c1.02 0 1.83-.73 1.83-1.72 0-.99-.81-1.72-1.83-1.72s-1.83.73-1.83 1.72c0 .99.81 1.72 1.83 1.72zM33.91 18.3c-1.15 0-2.12-.34-2.88-1.01v.83h-2.39V7.9h2.39v4.06c.76-.67 1.73-1.01 2.88-1.01 2.21 0 4.03 1.49 4.03 3.68 0 2.19-1.82 3.67-4.03 3.67zm-.57-1.95c1.02 0 1.83-.73 1.83-1.72 0-.99-.81-1.72-1.83-1.72s-1.83.73-1.83 1.72c0 .99.81 1.72 1.83 1.72zM45.1 18.3L41.37 11h2.7l2.21 4.39L48.49 11h2.61l-3.73 7.3h-2.27zM60.1 18.3V11h2.47v7.3H60.1z" fill="currentColor"/>
</svg>
