<svg xmlns="http://www.w3.org/2000/svg" width="94" height="24" viewBox="0 0 94 24" fill="none">
  <path fill="currentColor" d="M11.51 10.38c.94 0 1.7-.76 1.7-1.7 0-.94-.76-1.7-1.7-1.7-.94 0-1.7.76-1.7 1.7 0 .94.76 1.7 1.7 1.7Zm1.36 7.9v-6.56h-2.72v6.56h2.72Zm11.62 0v-4.11c0-1.34-.72-2.72-2.47-2.72-1.67 0-2.56 1.22-2.56 2.72v4.11h-2.72v-6.56h2.72v.91c.52-.76 1.59-1.18 2.72-1.18 2.53 0 5.03 1.61 5.03 4.58v2.25h-2.72Zm12.07-5.89c-.53-.62-1.41-.94-2.51-.94-1.95 0-3.4 1.42-3.4 3.55 0 2.13 1.45 3.55 3.4 3.55 1.1 0 1.98-.32 2.51-.94v.67h2.72v-6.56h-2.72v.67Zm-1.6 4.09c-.91 0-1.59-.57-1.59-1.48 0-.91.68-1.48 1.59-1.48.91 0 1.59.57 1.59 1.48 0 .91-.68 1.48-1.59 1.48Zm12.09-4.76L47.53 14.54l-1.12-2.82h-2.95l2.72 6.56v3.97h2.72v-3.97l2.72-6.56h-2.97Zm11.06-.27c-1.95 0-3.4 1.42-3.4 3.55 0 2.13 1.45 3.55 3.4 3.55 1.1 0 1.98-.32 2.51-.94v.67h2.72v-6.56h-2.72v.67Zm.91 4.09c-.91 0-1.59-.57-1.59-1.48 0-.91.68-1.48 1.59-1.48.91 0 1.59.57 1.59 1.48 0 .91-.68 1.48-1.59 1.48Zm13.69-4.76v2.45c-.52-.76-1.59-1.18-2.72-1.18-2.53 0-5.03 1.61-5.03 4.58v2.25h2.72v-4.11c0-1.34.72-2.72 2.47-2.72 1.67 0 2.56 1.22 2.56 2.72v4.11h2.72v-6.56h-2.72v-1.54Zm11.93-.27c-.53-.62-1.41-.94-2.51-.94-1.95 0-3.4 1.42-3.4 3.55 0 2.13 1.45 3.55 3.4 3.55 1.1 0 1.98-.32 2.51-.94v.67h2.72v-6.56h-2.72v.67Zm-1.6 4.09c-.91 0-1.59-.57-1.59-1.48 0-.91.68-1.48 1.59-1.48.91 0 1.59.57 1.59 1.48 0 .91-.68 1.48-1.59 1.48Z"/>
</svg>
