<svg width="2000" height="491" viewBox="0 0 2000 491" fill="none" xmlns="http://www.w3.org/2000/svg">
<path d="M192.834 163.743H0V105.908H454.103V163.743H261.272V490.75H192.834V163.743Z" fill="#201F1E"/>
<path d="M722.029 253.308V163.743H790.288V490.75H722.029V328.601C701.554 366.425 660.579 392.215 609.117 392.215C515.688 392.215 448.98 316.634 448.98 214.248C448.98 107.575 520.449 32 609.117 32C660.103 32 701.554 58.75 722.029 95.6144V163.743H722.029ZM622.923 100.853C564.832 100.853 516.64 147.124 516.64 214.248C516.64 278.105 565.308 322.908 622.923 322.908C680.538 322.908 722.029 278.105 722.029 214.248C722.029 146.16 681.014 100.853 622.923 100.853Z" fill="#201F1E"/>
<path d="M848.337 163.743H916.6V253.308C937.075 216.444 978.526 189.693 1030 189.693C1118.66 189.693 1190.13 265.275 1190.13 371.948V490.75H1121.87V371.948C1121.87 304.824 1073.2 258.552 1015.59 258.552C957.974 258.552 916.523 304.824 916.523 371.948V490.75H848.337V163.743Z" fill="#201F1E"/>
<path d="M1534.62 163.743V490.75H1466.36V430.222C1445.89 467.087 1404.91 493.837 1353.45 493.837C1260.02 493.837 1193.31 418.255 1193.31 315.869C1193.31 209.196 1264.78 133.621 1353.45 133.621C1404.44 133.621 1445.89 160.373 1466.36 197.237V163.743H1534.62ZM1435.52 202.474C1377.43 202.474 1329.23 248.745 1329.23 315.869C1329.23 379.725 1377.9 424.529 1435.52 424.529C1493.13 424.529 1534.62 379.725 1534.62 315.869C1534.62 247.781 1493.61 202.474 1435.52 202.474Z" fill="#201F1E"/>
<path d="M1580.78 163.743H1649.03V253.308C1669.51 216.444 1710.96 189.693 1762.43 189.693C1787.03 189.693 1805.51 193.301 1819.5 200.523L1789.77 263.317C1777.88 259.036 1761.68 256.65 1742.66 256.65C1685.05 256.65 1643.6 302.922 1643.6 370.046V490.75H1575.34L1580.78 163.743Z" fill="#201F1E"/>
<path d="M2000 163.743V490.75H1931.74V430.222C1911.27 467.087 1870.29 493.837 1818.82 493.837C1725.39 493.837 1658.69 418.255 1658.69 315.869C1658.69 209.196 1730.15 133.621 1818.82 133.621C1869.8 133.621 1911.27 160.373 1931.74 197.237V163.743H2000ZM1900.89 202.474C1842.8 202.474 1794.61 248.745 1794.61 315.869C1794.61 379.725 1843.28 424.529 1900.89 424.529C1958.51 424.529 2000 379.725 2000 315.869C2000 247.781 1958.99 202.474 1900.89 202.474Z" fill="#201F1E"/>
</svg>
