<svg xmlns="http://www.w3.org/2000/svg" viewBox="0 0 100 30" width="100" height="30">
  <path d="M12.4 14.8c0-4.6-3.7-8.3-8.3-8.3C1.8 6.5 0 8.3 0 10.6c0 1.2 0.5 2.3 1.2 3.2 0.7 0.9 1.8 1.4 3 1.4 0.6 0 1.2-0.1 1.7-0.4 0.5-0.3 0.9-0.7 1.2-1.2 0.3-0.5 0.4-1.1 0.4-1.7 0-1.8-1.5-3.3-3.3-3.3 -0.9 0-1.7 0.4-2.3 1 -0.6 0.6-1 1.4-1 2.3 0 2.3 1.9 4.2 4.2 4.2 2.3 0 4.2-1.9 4.2-4.2V11c0-0.6-0.5-1.1-1.1-1.1 -0.6 0-1.1 0.5-1.1 1.1v1.1c0 1.2-1 2.2-2.2 2.2 -1.2 0-2.2-1-2.2-2.2 0-1.2 1-2.2 2.2-2.2 0.6 0 1.1 0.2 1.5 0.6 0.4 0.4 0.7 1 0.7 1.6H12.4z" fill="#000"/>
  <path d="M16.9 8.2v5.3h-4V18.8c0 0.9 0.7 1.6 1.6 1.6 0.4 0 0.8-0.2 1.1-0.5 0.3-0.3 0.5-0.7 0.5-1.1V13.5h4v5.3c0 1.8-1.5 3.3-3.3 3.3 -1.8 0-3.3-1.5-3.3-3.3V13.5h-1.6v-2.2h1.6V8.2H16.9z" fill="#000"/>
  <!-- Simplified Text "tamara" -->
  <path d="M22 13.5h2.5v7.2H22V13.5z M23.2 10.3c0.9 0 1.6 0.7 1.6 1.6S24.1 13.5 23.2 13.5 21.6 12.8 21.6 11.9 22.3 10.3 23.2 10.3z" fill="#000"/>
  <path d="M26.8 13.5h2.4v1.1c0.5-0.8 1.4-1.3 2.4-1.3 1.5 0 2.8 1.1 2.8 2.8v4.6h-2.5v-3.9c0-0.8-0.5-1.4-1.3-1.4 -0.8 0-1.4 0.6-1.4 1.4v3.9H26.8V13.5z" fill="#000"/>
  <path d="M43.2 13.5h2.4v7.2H43.2V19.6c-0.6 0.8-1.5 1.3-2.5 1.3 -1.8 0-3.3-1.5-3.3-3.3s1.5-3.3 3.3-3.3c1 0 1.9 0.5 2.5 1.3V13.5z M43.2 17.6c0-1.2-1-2.2-2.2-2.2 -1.2 0-2.2 1-2.2 2.2s1 2.2 2.2 2.2C42.2 19.8 43.2 18.8 43.2 17.6z" fill="#000"/>
  <path d="M48.5 13.5h2.4v1.2c0.4-0.8 1.2-1.3 2.2-1.3v2.6c-0.1 0-0.2 0-0.3 0 -1.2 0-2.1 0.9-2.1 2.1v2.6H48.5V13.5z" fill="#000"/>
  <path d="M59.4 13.5h2.4v7.2H59.4V19.6c-0.6 0.8-1.5 1.3-2.5 1.3 -1.8 0-3.3-1.5-3.3-3.3s1.5-3.3 3.3-3.3c1 0 1.9 0.5 2.5 1.3V13.5z M59.4 17.6c0-1.2-1-2.2-2.2-2.2 -1.2 0-2.2 1-2.2 2.2s1 2.2 2.2 2.2C58.4 19.8 59.4 18.8 59.4 17.6z" fill="#000"/>
</svg>
