<svg width="31" height="11" viewBox="0 0 31 11" fill="none" xmlns="http://www.w3.org/2000/svg">
<path d="M13.1613 6.55166H0.3125V10.8321H13.1613V6.55166Z" fill="#84B740"/>
<path d="M13.1613 0.710938H0.3125V4.99515H13.1613V0.710938Z" fill="#259BD6"/>
<path d="M26.0104 9.96224L25.9531 9.97368C25.7548 10.0118 25.6823 10.0271 25.5373 10.0271C25.2016 10.0271 24.8048 9.85542 24.8048 9.04664C24.8048 8.63081 24.8735 8.07764 25.4992 8.07764H25.503C25.6098 8.08527 25.7319 8.09672 25.9608 8.16539L26.0104 8.18065V9.96224ZM26.1134 5.92981L26.0104 5.94889V7.44436L25.9188 7.41765L25.8921 7.41002C25.7891 7.3795 25.5526 7.31083 25.3237 7.31083C24.0724 7.31083 23.8091 8.25695 23.8091 9.05046C23.8091 10.1377 24.4195 10.7634 25.4839 10.7634C25.9341 10.7634 26.266 10.7176 26.6017 10.607C26.9107 10.5078 27.0213 10.3666 27.0213 10.0652V5.7734C26.7238 5.82681 26.4147 5.88022 26.1134 5.92981Z" fill="#27292D"/>
<path d="M29.7297 9.98895L29.6763 10.0042L29.4856 10.0538C29.3063 10.0996 29.146 10.1263 29.0239 10.1263C28.7302 10.1263 28.5547 9.98132 28.5547 9.73335C28.5547 9.57312 28.6272 9.30225 29.1079 9.30225H29.7297V9.98895ZM29.291 7.29177C28.9057 7.29177 28.5089 7.36043 28.0168 7.51303L27.6963 7.60841L27.8032 8.33325L28.116 8.23025C28.4441 8.12343 28.8523 8.05476 29.1575 8.05476C29.2948 8.05476 29.7145 8.05476 29.7145 8.50874V8.70712H29.1308C28.0664 8.70712 27.5743 9.04665 27.5743 9.77531C27.5743 10.3972 28.0282 10.771 28.7912 10.771C29.0278 10.771 29.3559 10.7252 29.6382 10.6566L29.6534 10.6528L29.6687 10.6566L29.7641 10.6718C30.0616 10.7252 30.3706 10.7786 30.672 10.8359V8.45533C30.672 7.68471 30.2066 7.29177 29.291 7.29177Z" fill="#27292D"/>
<path d="M22.317 9.98895L22.2636 10.0042L22.0729 10.0538C21.8936 10.0996 21.7371 10.1263 21.6113 10.1263C21.3175 10.1263 21.142 9.98132 21.142 9.73335C21.142 9.57312 21.2145 9.30226 21.6914 9.30226H22.3132V9.98895H22.317ZM21.8821 7.29177C21.493 7.29177 21.1 7.36043 20.6079 7.51303L20.2875 7.60841L20.3943 8.33325L20.7071 8.23025C21.0352 8.12343 21.4434 8.05476 21.7486 8.05476C21.8859 8.05476 22.3056 8.05476 22.3056 8.50874V8.70712H21.7219C20.6575 8.70712 20.1616 9.04665 20.1616 9.77531C20.1616 10.3972 20.6155 10.771 21.3824 10.771C21.6189 10.771 21.947 10.7252 22.2293 10.6566L22.2445 10.6528L22.2598 10.6566L22.3514 10.6718C22.6527 10.7252 22.9579 10.7786 23.2593 10.8397V8.45915C23.2631 7.68089 22.7977 7.29177 21.8821 7.29177Z" fill="#27292D"/>
<path d="M18.2995 7.2994C17.815 7.2994 17.4145 7.45963 17.2657 7.5283L17.2275 7.54737L17.1932 7.52067C16.9872 7.37188 16.6858 7.29559 16.2662 7.29559C15.8961 7.29559 15.5489 7.34899 15.1713 7.45963C14.847 7.55882 14.7211 7.71523 14.7211 8.00898V10.7291H15.7359V8.21499L15.7855 8.19973C15.9915 8.13106 16.1136 8.11962 16.2318 8.11962C16.5256 8.11962 16.6744 8.27603 16.6744 8.58123V10.7329H17.6739V8.53926C17.6739 8.40956 17.6472 8.33326 17.6434 8.318L17.609 8.25314L17.6777 8.22262C17.8303 8.15395 17.9981 8.11962 18.1736 8.11962C18.3758 8.11962 18.6162 8.19973 18.6162 8.58123V10.7329H19.6119V8.48204C19.6119 7.68471 19.1846 7.2994 18.2995 7.2994Z" fill="#27292D"/>
<path d="M28.9821 3.5035C28.8333 3.5035 28.5853 3.48824 28.3908 3.45009L28.3335 3.43864V1.96988C28.3335 1.8478 28.3106 1.7715 28.3068 1.76005L28.2763 1.69902L28.3412 1.67231C28.3564 1.66468 28.3717 1.66087 28.3908 1.65324L28.4022 1.64561C28.4251 1.63798 28.448 1.63035 28.4709 1.62272C28.4823 1.6189 28.4899 1.61509 28.4976 1.61509C28.7227 1.55405 28.9287 1.56168 29.0202 1.55405H29.024C29.6459 1.55405 29.7184 2.10722 29.7184 2.52305C29.7146 3.33182 29.314 3.5035 28.9821 3.5035ZM28.9783 0.710938C28.9706 0.710938 28.9592 0.710938 28.9516 0.710938C28.3679 0.710938 27.7689 0.871167 27.5553 1.18399C27.4408 1.33659 27.376 1.52734 27.3722 1.75242V3.26697C27.3722 3.39668 27.3455 3.44627 27.3416 3.45772L27.3073 3.52257H25.4647V2.46964H25.4609C25.438 1.35948 24.7818 0.749087 23.8319 0.749087H22.9048C22.8667 1.01995 22.8362 1.2107 22.798 1.48156H23.7212C24.2057 1.48156 24.4613 1.89358 24.4613 2.52686V3.58743L24.3965 3.55309C24.385 3.54927 24.3049 3.52257 24.179 3.52257H22.5844C22.5539 3.72476 22.5157 3.988 22.4737 4.25123H27.376C27.5438 4.2169 27.7384 4.18638 27.9063 4.15967C28.1542 4.28175 28.6158 4.3466 28.9325 4.3466C29.9969 4.3466 30.6874 3.6332 30.6874 2.53449C30.6836 1.44723 30.0159 0.733827 28.9783 0.710938Z" fill="#27292D"/>
<path d="M20.4283 4.69758C21.4927 4.69758 21.9886 4.34661 21.9886 3.48061C21.9886 2.85877 21.5346 2.36282 20.7716 2.36282H19.7912C19.4974 2.36282 19.3219 2.19496 19.3219 1.91266C19.3219 1.72191 19.3944 1.48538 19.8751 1.48538H22.0191C22.0649 1.20689 22.0878 1.0314 22.1298 0.752905H19.9018C18.8641 0.752905 18.3415 1.18781 18.3415 1.91266C18.3415 2.62987 18.7955 3.00374 19.5585 3.00374H20.5389C20.8327 3.00374 21.0082 3.23645 21.0082 3.48061C21.0082 3.64084 20.9357 3.97274 20.4588 3.97274H20.2948L17.155 3.96511H16.5828C16.0983 3.96511 15.7588 3.69043 15.7588 3.05333V2.61461C15.7588 1.95081 16.022 1.53879 16.5828 1.53879H17.5136C17.5556 1.25648 17.5823 1.07718 17.6205 0.810129H16.3501C15.4002 0.810129 14.744 1.44723 14.7211 2.55739V3.05333C14.744 4.16349 15.4002 4.69377 16.3501 4.69377H17.2771L18.9786 4.69758H20.4283Z" fill="#27292D"/>
</svg>
